HIERARCHY
ROOT Hips
{
	OFFSET 0.00000 0.00000 0.00000
	CHANNELS 6 Xposition Yposition Zposition Zrotation Yrotation Xrotation 
	JOINT LHipJoint
	{
		OFFSET 0 0 0
		CHANNELS 3 Zrotation Yrotation Xrotation
		JOINT LeftUpLeg
		{
			OFFSET 1.55020 -1.87941 0.79896
			CHANNELS 3 Zrotation Yrotation Xrotation
			JOINT LeftLeg
			{
				OFFSET 2.65269 -7.28822 0.00000
				CHANNELS 3 Zrotation Yrotation Xrotation
				JOINT LeftFoot
				{
					OFFSET 2.61200 -7.17641 0.00000
					CHANNELS 3 Zrotation Yrotation Xrotation
					JOINT LeftToeBase
					{
						OFFSET 0.09338 -0.25656 1.92461
						CHANNELS 3 Zrotation Yrotation Xrotation
						End Site
						{
							OFFSET 0.00000 -0.00000 0.98480
						}
					}
				}
			}
		}
	}
	JOINT RHipJoint
	{
		OFFSET 0 0 0
		CHANNELS 3 Zrotation Yrotation Xrotation
		JOINT RightUpLeg
		{
			OFFSET -1.56866 -1.87941 0.79895
			CHANNELS 3 Zrotation Yrotation Xrotation
			JOINT RightLeg
			{
				OFFSET -2.60199 -7.14892 0.00000
				CHANNELS 3 Zrotation Yrotation Xrotation
				JOINT RightFoot
				{
					OFFSET -2.62841 -7.22151 0.00000
					CHANNELS 3 Zrotation Yrotation Xrotation
					JOINT RightToeBase
					{
						OFFSET -0.19532 -0.53663 1.93132
						CHANNELS 3 Zrotation Yrotation Xrotation
						End Site
						{
							OFFSET -0.00000 -0.00000 1.00896
						}
					}
				}
			}
		}
	}
	JOINT LowerBack
	{
		OFFSET 0 0 0
		CHANNELS 3 Zrotation Yrotation Xrotation
		JOINT Spine
		{
			OFFSET 0.06381 2.07806 -0.22112
			CHANNELS 3 Zrotation Yrotation Xrotation
			JOINT Spine1
			{
				OFFSET -0.02881 2.08890 0.01825
				CHANNELS 3 Zrotation Yrotation Xrotation
				JOINT Neck
				{
					OFFSET 0 0 0
					CHANNELS 3 Zrotation Yrotation Xrotation
					JOINT Neck1
					{
						OFFSET 0.02418 1.74325 -0.02023
						CHANNELS 3 Zrotation Yrotation Xrotation
						JOINT Head
						{
							OFFSET -0.01704 1.71677 0.04090
							CHANNELS 3 Zrotation Yrotation Xrotation
							End Site
							{
								OFFSET -0.00946 1.78238 0.01684
							}
						}
					}
				}
				JOINT LeftShoulder
				{
					OFFSET 0 0 0
					CHANNELS 3 Zrotation Yrotation Xrotation
					JOINT LeftArm
					{
						OFFSET 3.39783 1.34157 0.16610
						CHANNELS 3 Zrotation Yrotation Xrotation
						JOINT LeftForeArm
						{
							OFFSET 5.15218 -0.00000 0.00000
							CHANNELS 3 Zrotation Yrotation Xrotation
							JOINT LeftHand
							{
								OFFSET 3.49459 -0.00000 0.00000
								CHANNELS 3 Zrotation Yrotation Xrotation
								JOINT LeftFingerBase
								{
									OFFSET 0 0 0
									CHANNELS 3 Zrotation Yrotation Xrotation
									JOINT LeftHandIndex1
									{
										OFFSET 0.51247 -0.00000 0.00000
										CHANNELS 3 Zrotation Yrotation Xrotation
										End Site
										{
											OFFSET 0.41316 -0.00000 0.00000
										}
									}
								}
								JOINT LThumb
								{
									OFFSET 0 0 0
									CHANNELS 3 Zrotation Yrotation Xrotation
									End Site
									{
										OFFSET 0.41947 -0.00000 0.41947
									}
								}
							}
						}
					}
				}
				JOINT RightShoulder
				{
					OFFSET 0 0 0
					CHANNELS 3 Zrotation Yrotation Xrotation
					JOINT RightArm
					{
						OFFSET -3.26224 1.05509 0.01188
						CHANNELS 3 Zrotation Yrotation Xrotation
						JOINT RightForeArm
						{
							OFFSET -5.44344 -0.00000 0.00000
							CHANNELS 3 Zrotation Yrotation Xrotation
							JOINT RightHand
							{
								OFFSET -3.58403 -0.00000 0.00000
								CHANNELS 3 Zrotation Yrotation Xrotation
								JOINT RightFingerBase
								{
									OFFSET 0 0 0
									CHANNELS 3 Zrotation Yrotation Xrotation
									JOINT RightHandIndex1
									{
										OFFSET -0.34249 -0.00000 0.00000
										CHANNELS 3 Zrotation Yrotation Xrotation
										End Site
										{
											OFFSET -0.27612 -0.00000 0.00000
										}
									}
								}
								JOINT RThumb
								{
									OFFSET 0 0 0
									CHANNELS 3 Zrotation Yrotation Xrotation
									End Site
									{
										OFFSET -0.28034 -0.00000 0.28034
									}
								}
							}
						}
					}
				}
			}
		}
	}
}
MOTION
Frames: 7
Frame Time: 0.0625
0.00 0.00 0.00 0 0 0 0 0 0 -21 0 0 0 0 0 0 0 0 0 0 0 0 0 0 21 0 0 0 0 0 0 0 0 0 0 0 0 0 0 0 0 0 0 0 0 0 0 -16 0 0 21 0 0 11 0 0 0 -8 0 0 0 0 0 0 0 0 0 0 0 0 0 0 0 0 0 0 0 0 8 0 0 0 0 0 0 0 0 0 0 0 0 0 0 0 0 0
0.00 0.00 0.00 -17.2334 -88.2149 18.0868 0.0000 0.0000 0.0000 -24.6837 -1.0565 -1.5444 2.1327 9.1371 26.2253 1.1466 -15.0086 -20.4377 0.5360 -4.6911 -13.0297 0.0000 0.0000 0.0000 19.9914 10.2744 -29.9986 -6.4022 -14.8071 46.5753 -0.7334 3.5130 -15.3710 -1.2603 7.1166 -20.0612 0.1858 -0.5180 10.3681 -0.3262 -0.7477 2.1556 -0.3423 -0.4020 -3.5737 3.6734 1.6597 2.8737 -3.5686 2.2353 -3.5140 -1.8025 1.1353 -1.5087 -0.0000 -0.0000 0.0000 -88.3187 5.6208 39.9390 37.9979 -46.8380 -16.9641 -0.0000 0.0000 -3.4562 19.5265 22.6197 7.7671 -7.1250 0.0000 -0.0000 -9.8934 53.5589 -2.0983 -0.0000 -0.0000 0.0000 85.9703 -6.3281 17.0432 -6.6361 11.3187 -0.6583 0.0000 0.0000 28.6152 -9.8710 -35.3816 5.7533 7.1250 -0.0000 -0.0000 29.0485 -63.4478 -13.5728
0.00 0.00 0.00 43.9549 -95.5190 -40.7979 0.0000 0.0000 0.0000 -20.4308 2.2340 6.3253 3.7683 11.8455 35.1876 0.1299 -5.3326 -6.9252 2.5294 -9.8912 -28.6250 0.0000 0.0000 0.0000 26.0891 11.7116 -26.6124 -4.2215 -12.4495 37.3413 -0.6951 5.1947 -14.8515 -0.5119 4.5862 -12.7320 5.0383 -0.7861 10.5325 1.3128 -0.4645 1.2235 -1.3966 -0.3394 -4.6581 4.1492 5.7025 3.9097 -6.1857 7.5070 -5.8185 -2.9312 3.8248 -2.1249 0.0000 -0.0000 0.0000 -92.8844 11.0958 17.8823 16.6804 -26.4345 -3.9440 -0.0000 -0.0000 8.4705 26.4228 14.4519 7.0692 -7.1250 0.0000 -0.0000 -1.0228 46.0322 -0.0261 0.0000 -0.0000 0.0000 86.8000 3.3396 0.2475 -3.8509 6.6351 -0.2233 0.0000 0.0000 57.3318 -10.1358 -37.9573 6.2749 7.1250 -0.0000 -0.0000 31.9164 -65.6822 -16.6896
0.00 0.00 0.00 52.6081 -95.4229 -49.5112 0.0000 0.0000 0.0000 -18.8319 -1.6315 -1.9897 7.8335 15.9954 51.9609 0.4384 5.4887 11.8327 0.4613 -4.3568 -12.0826 0.0000 0.0000 0.0000 27.5534 9.1348 -22.3994 -3.7692 -11.8467 35.1919 -0.9312 7.1452 -17.2364 -0.1356 2.3738 -6.5400 6.2365 -0.9706 9.9359 1.4223 -0.5947 0.9124 -1.9382 -0.4291 -4.6715 4.5229 5.7362 4.2253 -6.3450 7.6038 -5.1966 -3.0451 3.8758 -1.9532 -0.0000 0.0000 0.0000 -92.9810 14.5803 11.7371 13.4341 -21.9200 -2.6131 -0.0000 -0.0000 10.3417 24.1789 15.2440 6.7325 -7.1250 0.0000 -0.0000 -3.2675 46.5858 -0.1280 -0.0000 0.0000 0.0000 87.0833 5.3372 10.6979 -6.3550 10.8530 -0.6043 0.0000 0.0000 48.4617 -11.0541 -38.3115 6.9055 7.1250 -0.0000 -0.0000 31.4198 -66.2386 -16.8030
0.00 0.00 0.00 68.1446 -99.1574 -66.1635 0.0000 0.0000 0.0000 -11.4787 -7.5812 -19.7757 13.6174 18.9939 71.0327 0.0454 -3.3245 6.5610 0.9537 -6.2189 -17.4209 0.0000 0.0000 0.0000 33.2507 -0.1119 -12.7786 -2.3203 -9.5036 27.3839 -0.9533 11.4100 -18.0243 -1.5106 7.7622 -21.9942 11.4903 -0.2851 10.3336 2.3098 0.9523 0.7680 -4.1459 0.1987 -4.8545 5.6339 4.4212 4.4485 -6.1830 5.9810 -3.8943 -3.1393 3.0499 -1.6421 -0.0000 0.0000 0.0000 -92.3722 22.1032 10.0291 12.2811 -20.2248 -2.1985 -0.0000 -0.0000 14.7112 20.6513 16.1602 5.9884 -7.1250 0.0000 -0.0000 -6.7833 47.0715 -0.3483 -0.0000 0.0000 0.0000 83.9508 7.0654 40.5491 -17.8553 27.9714 -4.4811 0.0000 0.0000 18.6333 -14.5984 -37.8045 9.0706 7.1250 -0.0000 -0.0000 26.8659 -66.8500 -14.5748
0.00 0.00 0.00 54.6644 -99.1784 -52.5582 0.0000 0.0000 0.0000 -10.7083 -11.5653 -31.5849 9.3435 17.0237 57.2705 0.1152 -4.9502 -6.4983 1.9976 -8.8611 -25.3617 0.0000 0.0000 0.0000 31.7221 -6.8012 -4.5721 -1.3461 -7.3454 20.7428 -0.6578 18.4978 -18.2807 -0.4248 4.1829 -11.5919 11.5811 1.4924 9.4154 1.0126 3.1604 0.8028 -5.8185 1.3486 -3.8752 7.0823 2.7586 4.4030 -5.1540 3.8982 -3.7052 -3.0213 1.9662 -1.7049 0.0000 0.0000 0.0000 -89.6638 27.5072 13.7993 13.0285 -21.3290 -2.4637 -0.0000 -0.0000 11.7875 21.3779 15.3127 5.9021 -7.1250 0.0000 -0.0000 -5.9102 46.2800 -0.1874 0.0000 0.0000 0.0000 83.0703 11.2073 43.4667 -28.2977 39.3889 -10.3121 0.0000 0.0000 14.4982 -15.7544 -41.8528 10.6601 7.1250 -0.0000 -0.0000 31.8826 -70.5847 -20.1248
0.00 0.00 0.00 43.3920 -100.7790 -41.9836 0.0000 0.0000 0.0000 -10.6322 -10.8090 -33.0922 5.4084 13.8294 42.5584 0.1888 -3.6993 -7.7633 0.6036 -4.9733 -13.8325 0.0000 0.0000 0.0000 31.1044 -7.6268 3.9977 -0.5253 -4.6446 12.8976 -0.3790 17.2418 -15.4903 -0.4305 4.2107 -11.6703 11.7391 2.1835 9.6209 0.7997 4.0321 1.5776 -6.2031 1.8554 -2.9743 6.8500 2.3438 3.0610 -5.1562 3.2445 -3.5344 -2.9300 1.6292 -1.4541 0.0000 -0.0000 0.0000 -90.3181 27.0436 11.2817 12.5491 -20.6230 -2.2920 -0.0000 -0.0000 12.1275 20.9497 15.9116 5.9919 -7.1250 0.0000 -0.0000 -6.4445 46.8520 -0.2957 0.0000 -0.0000 0.0000 82.8647 14.5186 45.3501 -31.1941 41.8951 -12.1992 0.0000 0.0000 13.3695 -20.2706 -36.0574 12.2644 7.1250 -0.0000 -0.0000 18.1782 -66.9575 -9.7458
